<svg width="1334" height="461" viewBox="0 0 1334 461" fill="none" xmlns="http://www.w3.org/2000/svg">
<path d="M228.085 411.334C228.557 411.471 228.99 411.711 229.356 412.039C229.768 412.161 230.146 412.371 230.467 412.656L231.897 413.449L234.841 413.759C235.719 413.709 236.591 413.524 237.43 413.211L239.543 412.398L240.01 411.555L316.424 367.053L387.762 324.588C389.651 323.738 391.382 322.526 392.857 321.019L393.606 319.67C394.679 318.294 395.533 316.755 396.132 315.116L397.068 313.43C397.747 311.245 398.092 308.98 398.091 306.719L394.128 139.768L393.858 137.633L393.43 135.41L393.254 133.107L392.768 131.735L390.947 129.402L389.518 128.608L388.565 128.08C387.602 127.331 386.532 126.738 385.388 126.317L246.729 49.3858C244.033 47.8824 240.975 47.1335 237.843 47.2098C234.711 47.286 231.61 48.1848 228.831 49.8214L84.9591 135.413L82.6027 137.413L81.8542 138.763C79.419 141.143 77.7194 144.206 76.9888 147.532L76.2402 148.881L75.7897 151.939L78.7626 317.68C78.8448 320.904 79.7237 324.011 81.3165 326.709C82.9092 329.406 85.1632 331.605 87.8656 333.096L226.525 410.028C226.525 410.028 227.45 410.982 228.085 411.334ZM131.841 148.632L236.669 85.4887L338.162 141.799L232.698 204.59L131.841 148.632ZM115.51 304.985L112.651 182.095L213.985 238.318L216.527 361.032L115.51 304.985Z" fill="url(#paint0_linear_2_14)"/>
<path d="M589.403 315.193C585.83 315.193 581.636 313.096 576.821 308.902C572.161 304.863 567.268 299.504 562.142 292.825C557.016 286.146 551.89 278.845 546.764 270.923C541.793 263.001 537.133 255.001 532.784 246.924C528.435 238.847 524.784 231.624 521.833 225.255C517.484 239.856 513.367 254.225 509.484 268.36C505.601 282.495 501.95 295.543 498.533 307.504C494.184 307.504 490.145 306.261 486.417 303.776C482.844 301.446 481.058 298.339 481.058 294.456C481.058 292.747 481.446 290.728 482.223 288.398C483 286.068 483.699 283.816 484.32 281.641C488.669 268.593 492.63 256.71 496.203 245.992C499.776 235.274 503.193 225.255 506.455 215.935C509.872 206.615 513.29 197.373 516.707 188.208C520.28 179.043 524.085 169.568 528.124 159.782C532.318 149.996 536.978 139.278 542.104 127.628C535.891 128.715 530.454 130.346 525.794 132.521C521.134 134.54 517.328 136.404 514.377 138.113C511.426 139.666 509.406 140.443 508.319 140.443C507.698 140.443 506.61 139.977 505.057 139.045C503.659 138.113 502.416 137.026 501.329 135.783C500.242 134.385 499.698 133.22 499.698 132.288C504.047 130.579 509.018 128.715 514.61 126.696C520.357 124.677 526.648 122.968 533.483 121.57C540.318 120.017 547.385 119.24 554.686 119.24C561.521 119.24 568.588 120.094 575.889 121.803C583.19 123.356 589.869 125.919 595.927 129.492C602.14 133.065 607.111 137.725 610.839 143.472C614.722 149.064 616.664 155.821 616.664 163.743C616.664 171.199 614.955 177.645 611.538 183.082C608.276 188.363 603.849 192.868 598.257 196.596C592.82 200.324 586.762 203.353 580.083 205.683C573.559 208.013 566.957 209.799 560.278 211.042C553.754 212.285 547.696 213.139 542.104 213.605C536.667 214.071 532.24 214.382 528.823 214.537C533.794 222.459 538.609 230.226 543.269 237.837C547.929 245.448 552.9 252.982 558.181 260.438C563.618 267.894 569.909 275.428 577.054 283.039C584.355 290.495 592.976 298.106 602.917 305.873C602.14 308.514 600.276 310.688 597.325 312.397C594.374 314.261 591.733 315.193 589.403 315.193ZM526.493 208.479C535.192 208.013 543.735 206.693 552.123 204.518C560.666 202.188 568.433 199.081 575.423 195.198C582.413 191.159 588.005 186.189 592.199 180.286C596.393 174.228 598.49 167.16 598.49 159.083C598.49 150.85 596.471 144.404 592.432 139.744C588.393 134.929 583.19 131.511 576.821 129.492C570.452 127.473 563.773 126.385 556.783 126.23C551.502 136.793 546.298 149.297 541.172 163.743C536.201 178.034 531.308 192.946 526.493 208.479ZM635.805 297.252C626.019 297.252 618.563 294.611 613.437 289.33C608.311 284.049 605.748 277.447 605.748 269.525C605.748 262.535 607.456 255.234 610.874 247.623C614.446 239.856 619.184 232.633 625.087 225.954C630.989 219.119 637.436 213.605 644.426 209.411C651.571 205.062 658.639 202.887 665.629 202.887C669.512 202.887 673.162 203.897 676.58 205.916C680.152 207.935 681.939 211.974 681.939 218.032C681.939 223.935 680.152 229.527 676.58 234.808C673.162 239.934 668.58 244.516 662.833 248.555C657.241 252.594 650.95 255.933 643.96 258.574C637.125 261.059 630.29 262.613 623.456 263.234C623.3 264.166 623.145 265.098 622.99 266.03C622.834 266.962 622.757 268.205 622.757 269.758C622.757 271.001 622.912 272.709 623.223 274.884C623.689 276.903 624.465 279 625.553 281.175C626.795 283.194 628.659 284.903 631.145 286.301C633.63 287.699 636.892 288.398 640.931 288.398C647.455 288.398 653.979 286.534 660.503 282.806C667.182 279.078 673.395 274.185 679.143 268.127C684.89 261.914 689.705 255.079 693.589 247.623L697.55 250.885C693.356 260.205 687.997 268.36 681.473 275.35C674.949 282.185 667.726 287.544 659.804 291.427C652.037 295.31 644.037 297.252 635.805 297.252ZM625.553 256.011C629.591 255.234 634.174 253.681 639.3 251.351C644.426 248.866 649.319 245.837 653.979 242.264C658.639 238.536 662.444 234.497 665.396 230.148C668.502 225.799 670.056 221.372 670.056 216.867C670.056 215.158 669.745 213.916 669.124 213.139C668.502 212.362 667.415 211.974 665.862 211.974C662.134 211.974 658.25 213.372 654.212 216.168C650.328 218.809 646.445 222.304 642.562 226.653C638.834 230.847 635.494 235.585 632.543 240.866C629.591 245.992 627.261 251.04 625.553 256.011ZM714.533 298.883C706.922 298.883 700.786 297.252 696.126 293.99C691.621 290.883 688.437 286.922 686.573 282.107C684.554 277.292 683.544 272.399 683.544 267.428C683.544 262.923 684.165 259.428 685.408 256.943C686.651 254.458 688.204 252.594 690.068 251.351C691.932 250.108 693.641 249.176 695.194 248.555C696.903 247.934 698.068 247.312 698.689 246.691C702.883 242.186 706.999 237.216 711.038 231.779C715.077 226.342 718.572 220.44 721.523 214.071V211.508C721.523 205.45 722.533 201.178 724.552 198.693C726.571 196.208 728.901 194.965 731.542 194.965C733.251 194.965 734.493 195.431 735.27 196.363C736.047 197.14 736.435 198.072 736.435 199.159C736.435 199.936 736.202 201.023 735.736 202.421C735.425 203.819 735.27 205.683 735.27 208.013C735.27 212.828 736.357 218.265 738.532 224.323C740.707 230.226 742.881 236.517 745.056 243.196C747.231 249.875 748.318 256.71 748.318 263.7C748.318 265.719 748.24 267.583 748.085 269.292C747.93 270.845 747.619 272.399 747.153 273.952C752.279 272.865 757.172 270.302 761.832 266.263C766.492 262.069 770.997 255.856 775.346 247.623L777.909 249.72C774.958 258.574 770.608 265.564 764.861 270.69C759.269 275.661 752.823 278.69 745.522 279.777C743.037 286.301 738.998 291.116 733.406 294.223C727.814 297.33 721.523 298.883 714.533 298.883ZM713.601 289.33C716.242 289.33 718.96 288.553 721.756 287C724.552 285.602 726.804 283.117 728.513 279.544C721.989 278.146 716.164 275.661 711.038 272.088C706.067 268.36 702.184 264.554 699.388 260.671C696.903 261.137 695.66 263.467 695.66 267.661C695.66 272.942 697.136 277.913 700.087 282.573C703.194 287.078 707.698 289.33 713.601 289.33ZM730.144 273.486C730.455 272.243 730.61 270.845 730.61 269.292C730.765 267.739 730.843 266.341 730.843 265.098C730.688 257.953 729.756 250.963 728.047 244.128C726.338 237.138 724.707 230.148 723.154 223.158C720.047 228.439 716.552 233.876 712.669 239.468C708.941 244.905 705.446 249.332 702.184 252.749C704.514 257.254 708.087 261.448 712.902 265.331C717.873 269.214 723.62 271.933 730.144 273.486ZM787.144 293.99C781.862 293.99 777.513 291.582 774.096 286.767C770.834 281.952 769.203 276.36 769.203 269.991C769.203 265.642 769.902 260.516 771.3 254.613C772.853 248.71 774.717 242.963 776.892 237.371C779.066 231.624 781.319 226.886 783.649 223.158C786.134 219.43 788.309 217.566 790.173 217.566C791.26 217.566 792.813 218.11 794.833 219.197C797.007 220.284 798.871 221.605 800.425 223.158C798.716 225.643 796.619 229.527 794.134 234.808C791.804 240.089 789.707 245.759 787.843 251.817C785.979 257.72 785.047 263.156 785.047 268.127C785.047 268.904 785.124 270.535 785.28 273.02C785.59 275.35 786.212 277.525 787.144 279.544C788.231 281.563 790.017 282.573 792.503 282.573C795.143 282.573 798.017 281.175 801.124 278.379C804.23 275.428 807.337 271.622 810.444 266.962C813.706 262.302 816.812 257.254 819.764 251.817C822.715 246.38 825.433 241.177 827.919 236.206C830.404 231.235 832.423 227.041 833.977 223.624C835.219 223.779 836.85 224.168 838.87 224.789C841.044 225.255 842.908 225.954 844.462 226.886C846.17 227.818 847.025 229.138 847.025 230.847C847.025 231.313 846.248 233.255 844.695 236.672C843.297 240.089 841.588 244.206 839.569 249.021C837.549 253.836 835.763 258.729 834.21 263.7C832.812 268.671 832.113 273.02 832.113 276.748C832.113 279.078 832.579 281.097 833.511 282.806C834.443 284.515 836.229 285.369 838.87 285.369C842.132 285.369 846.015 283.893 850.52 280.942C855.18 277.991 859.917 273.719 864.733 268.127C869.548 262.38 873.82 255.623 877.548 247.856L880.81 250.419C877.392 258.807 872.965 266.341 867.529 273.02C862.247 279.544 856.5 284.67 850.287 288.398C844.229 292.126 838.326 293.99 832.579 293.99C828.229 293.99 824.89 292.98 822.56 290.961C820.23 289.097 818.599 286.612 817.667 283.505C816.89 280.398 816.502 277.214 816.502 273.952C816.502 272.865 816.502 271.7 816.502 270.457C816.657 269.214 816.812 268.049 816.968 266.962C814.327 271.467 811.376 275.816 808.114 280.01C805.007 284.049 801.667 287.388 798.095 290.029C794.677 292.67 791.027 293.99 787.144 293.99ZM992.517 294.223C986.614 294.223 982.265 292.437 979.469 288.864C976.673 285.447 975.275 281.33 975.275 276.515C975.275 272.787 975.818 269.137 976.906 265.564C977.993 261.836 979.08 258.186 980.168 254.613C981.41 251.04 982.032 247.778 982.032 244.827C982.032 242.031 981.41 240.089 980.168 239.002C979.08 237.915 977.76 237.371 976.207 237.371C972.479 237.371 968.285 240.245 963.625 245.992C958.965 251.584 953.062 259.661 945.917 270.224C943.431 273.952 941.179 277.835 939.16 281.874C937.14 285.913 935.276 289.408 933.568 292.359C932.325 292.359 930.616 292.126 928.442 291.66C926.267 291.194 924.325 290.573 922.617 289.796C921.063 289.019 920.287 288.01 920.287 286.767C920.287 285.369 921.063 282.651 922.617 278.612C924.17 274.573 925.956 269.836 927.976 264.399C929.995 258.962 931.704 253.603 933.102 248.322C934.655 242.885 935.432 238.303 935.432 234.575C935.432 232.245 935.043 230.459 934.267 229.216C933.49 227.818 932.17 227.119 930.306 227.119C927.044 227.119 923.083 229.138 918.423 233.177C913.763 237.06 908.87 242.186 903.744 248.555C898.618 254.924 893.802 262.069 889.298 269.991C884.948 277.758 881.376 285.524 878.58 293.291C876.871 293.291 874.852 292.98 872.522 292.359C870.192 291.738 868.172 290.961 866.464 290.029C864.755 289.097 863.901 288.243 863.901 287.466C863.901 287 864.522 284.592 865.765 280.243C867.007 275.894 868.561 270.535 870.425 264.166C872.133 257.797 873.764 251.273 875.318 244.594C877.026 237.915 878.347 232.012 879.279 226.886C879.9 225.488 881.531 224.168 884.172 222.925C886.812 221.682 889.22 221.061 891.395 221.061C893.569 221.061 895.278 221.682 896.521 222.925C897.919 224.168 898.618 225.876 898.618 228.051C898.618 229.76 898.229 232.478 897.453 236.206C896.676 239.779 895.666 243.817 894.424 248.322C897.686 243.662 901.181 239.08 904.909 234.575C908.637 229.915 912.52 225.721 916.559 221.993C920.753 218.265 924.869 215.314 928.908 213.139C933.102 210.809 937.218 209.644 941.257 209.644C946.693 209.644 950.344 211.586 952.208 215.469C954.227 219.352 955.237 223.702 955.237 228.517C955.237 231.158 954.926 233.876 954.305 236.672C953.839 239.468 953.217 242.109 952.441 244.594C951.819 247.079 951.043 249.565 950.111 252.05C953.062 247.235 956.402 242.652 960.13 238.303C963.858 233.954 967.819 230.536 972.013 228.051C976.207 225.41 980.711 224.09 985.527 224.09C991.274 224.09 995.235 225.799 997.41 229.216C999.584 232.633 1000.67 236.439 1000.67 240.633C1000.67 244.672 999.973 249.021 998.575 253.681C997.332 258.186 996.012 262.535 994.614 266.729C993.216 270.768 992.517 274.263 992.517 277.214C992.517 278.923 992.905 280.476 993.682 281.874C994.614 283.272 996.322 283.971 998.808 283.971C1003 283.971 1007.04 282.029 1010.92 278.146C1014.81 274.263 1018.38 269.525 1021.64 263.933C1024.9 258.186 1027.7 252.749 1030.03 247.623L1033.52 251.817C1031.04 258.341 1027.86 264.865 1023.97 271.389C1020.09 277.913 1015.51 283.35 1010.22 287.699C1004.94 292.048 999.041 294.223 992.517 294.223ZM1037.08 297.951C1032.11 297.951 1027.84 296.242 1024.27 292.825C1020.54 289.563 1018.68 284.592 1018.68 277.913C1018.68 272.321 1019.92 266.341 1022.4 259.972C1024.89 253.603 1028.31 247.312 1032.66 241.099C1037.01 234.886 1041.98 229.216 1047.57 224.09C1053.16 218.964 1059.06 214.848 1065.28 211.741C1071.65 208.634 1077.94 207.081 1084.15 207.081C1090.67 207.081 1096.11 208.79 1100.46 212.207C1104.96 215.469 1107.22 219.818 1107.22 225.255C1107.22 229.449 1105.9 232.4 1103.26 234.109C1100.61 235.818 1097.35 236.361 1093.47 235.74C1093.78 234.497 1094.01 233.177 1094.17 231.779C1094.48 230.226 1094.63 228.75 1094.63 227.352C1094.63 224.09 1093.94 221.216 1092.54 218.731C1091.14 216.246 1088.42 215.003 1084.38 215.003C1080.03 215.003 1075.61 216.479 1071.1 219.43C1066.6 222.381 1062.25 226.265 1058.05 231.08C1053.86 235.895 1050.13 241.177 1046.87 246.924C1043.61 252.671 1041.04 258.341 1039.18 263.933C1037.32 269.525 1036.38 274.496 1036.38 278.845C1036.38 284.126 1038.33 286.767 1042.21 286.767C1045.78 286.767 1049.67 285.058 1053.86 281.641C1058.21 278.224 1062.56 273.874 1066.91 268.593C1071.41 263.312 1075.68 257.953 1079.72 252.516C1083.76 246.924 1087.26 242.031 1090.21 237.837C1090.83 237.06 1091.37 236.672 1091.84 236.672C1092.62 236.827 1093.86 237.216 1095.57 237.837C1097.28 238.303 1098.83 239.002 1100.23 239.934C1101.62 240.866 1102.32 242.109 1102.32 243.662C1102.32 245.215 1101.62 247.235 1100.23 249.72C1098.83 252.05 1097.28 254.691 1095.57 257.642C1093.86 260.593 1092.3 263.545 1090.91 266.496C1089.51 269.447 1088.81 272.321 1088.81 275.117C1088.81 277.136 1089.35 279.156 1090.44 281.175C1091.68 283.039 1093.62 283.971 1096.27 283.971C1100.15 283.971 1105.43 281.175 1112.11 275.583C1118.94 269.836 1125.86 260.516 1132.85 247.623L1136.57 251.351C1133 259.739 1128.57 267.117 1123.29 273.486C1118.17 279.855 1112.73 284.825 1106.98 288.398C1101.24 292.126 1095.49 293.99 1089.74 293.99C1083.53 293.99 1078.95 292.048 1075.99 288.165C1073.04 284.437 1071.41 280.321 1071.1 275.816C1071.1 275.35 1071.1 274.884 1071.1 274.418C1071.26 273.797 1071.33 273.253 1071.33 272.787C1064.97 280.709 1059.14 286.845 1053.86 291.194C1048.58 295.699 1042.99 297.951 1037.08 297.951Z" fill="black"/>
<defs>
<linearGradient id="paint0_linear_2_14" x1="151.5" y1="102.5" x2="366" y2="335.5" gradientUnits="userSpaceOnUse">
<stop offset="0.61058" stop-color="#444444"/>
<stop offset="1" stop-color="#9B9885"/>
</linearGradient>
</defs>
</svg>
