<svg width="1367" height="461" viewBox="0 0 1367 461" fill="none" xmlns="http://www.w3.org/2000/svg">
<path d="M153.085 413.334C153.557 413.471 153.99 413.711 154.355 414.039C154.768 414.161 155.146 414.371 155.467 414.656L156.897 415.449L159.841 415.759C160.719 415.709 161.591 415.524 162.43 415.211L164.543 414.398L165.01 413.555L241.424 369.053L312.762 326.588C314.651 325.738 316.382 324.526 317.857 323.019L318.606 321.67C319.679 320.294 320.533 318.755 321.132 317.116L322.068 315.43C322.747 313.245 323.092 310.98 323.091 308.719L319.128 141.768L318.858 139.633L318.43 137.41L318.254 135.107L317.768 133.735L315.947 131.402L314.518 130.608L313.565 130.08C312.602 129.331 311.532 128.738 310.388 128.317L171.729 51.3858C169.033 49.8824 165.975 49.1335 162.843 49.2098C159.711 49.286 156.61 50.1848 153.831 51.8214L9.95911 137.413L7.60268 139.413L6.85414 140.763C4.41893 143.143 2.71942 146.206 1.98873 149.532L1.24021 150.881L0.789686 153.939L3.76255 319.68C3.84475 322.904 4.72369 326.011 6.31643 328.709C7.90918 331.406 10.1631 333.605 12.8655 335.096L151.525 412.028C151.525 412.028 152.45 412.982 153.085 413.334ZM56.8407 150.632L161.669 87.4887L263.162 143.799L157.698 206.59L56.8407 150.632ZM40.5102 306.985L37.6511 184.095L138.985 240.318L141.527 363.032L40.5102 306.985Z" fill="url(#paint0_linear_2_14)"/>
<path d="M495.403 323.193C491.83 323.193 487.636 321.096 482.821 316.902C478.161 312.863 473.268 307.504 468.142 300.825C463.016 294.146 457.89 286.845 452.764 278.923C447.793 271.001 443.133 263.001 438.784 254.924C434.435 246.847 430.784 239.624 427.833 233.255C423.484 247.856 419.367 262.225 415.484 276.36C411.601 290.495 407.95 303.543 404.533 315.504C400.184 315.504 396.145 314.261 392.417 311.776C388.844 309.446 387.058 306.339 387.058 302.456C387.058 300.747 387.446 298.728 388.223 296.398C389 294.068 389.699 291.816 390.32 289.641C394.669 276.593 398.63 264.71 402.203 253.992C405.776 243.274 409.193 233.255 412.455 223.935C415.872 214.615 419.29 205.373 422.707 196.208C426.28 187.043 430.085 177.568 434.124 167.782C438.318 157.996 442.978 147.278 448.104 135.628C441.891 136.715 436.454 138.346 431.794 140.521C427.134 142.54 423.328 144.404 420.377 146.113C417.426 147.666 415.406 148.443 414.319 148.443C413.698 148.443 412.61 147.977 411.057 147.045C409.659 146.113 408.416 145.026 407.329 143.783C406.242 142.385 405.698 141.22 405.698 140.288C410.047 138.579 415.018 136.715 420.61 134.696C426.357 132.677 432.648 130.968 439.483 129.57C446.318 128.017 453.385 127.24 460.686 127.24C467.521 127.24 474.588 128.094 481.889 129.803C489.19 131.356 495.869 133.919 501.927 137.492C508.14 141.065 513.111 145.725 516.839 151.472C520.722 157.064 522.664 163.821 522.664 171.743C522.664 179.199 520.955 185.645 517.538 191.082C514.276 196.363 509.849 200.868 504.257 204.596C498.82 208.324 492.762 211.353 486.083 213.683C479.559 216.013 472.957 217.799 466.278 219.042C459.754 220.285 453.696 221.139 448.104 221.605C442.667 222.071 438.24 222.382 434.823 222.537C439.794 230.459 444.609 238.226 449.269 245.837C453.929 253.448 458.9 260.982 464.181 268.438C469.618 275.894 475.909 283.428 483.054 291.039C490.355 298.495 498.976 306.106 508.917 313.873C508.14 316.514 506.276 318.688 503.325 320.397C500.374 322.261 497.733 323.193 495.403 323.193ZM432.493 216.479C441.192 216.013 449.735 214.693 458.123 212.518C466.666 210.188 474.433 207.081 481.423 203.198C488.413 199.159 494.005 194.189 498.199 188.286C502.393 182.228 504.49 175.16 504.49 167.083C504.49 158.85 502.471 152.404 498.432 147.744C494.393 142.929 489.19 139.511 482.821 137.492C476.452 135.473 469.773 134.385 462.783 134.23C457.502 144.793 452.298 157.297 447.172 171.743C442.201 186.034 437.308 200.946 432.493 216.479ZM541.805 305.252C532.019 305.252 524.563 302.611 519.437 297.33C514.311 292.049 511.748 285.447 511.748 277.525C511.748 270.535 513.456 263.234 516.874 255.623C520.446 247.856 525.184 240.633 531.087 233.954C536.989 227.119 543.436 221.605 550.426 217.411C557.571 213.062 564.639 210.887 571.629 210.887C575.512 210.887 579.162 211.897 582.58 213.916C586.152 215.935 587.939 219.974 587.939 226.032C587.939 231.935 586.152 237.527 582.58 242.808C579.162 247.934 574.58 252.516 568.833 256.555C563.241 260.594 556.95 263.933 549.96 266.574C543.125 269.059 536.29 270.613 529.456 271.234C529.3 272.166 529.145 273.098 528.99 274.03C528.834 274.962 528.757 276.205 528.757 277.758C528.757 279.001 528.912 280.709 529.223 282.884C529.689 284.903 530.465 287 531.553 289.175C532.795 291.194 534.659 292.903 537.145 294.301C539.63 295.699 542.892 296.398 546.931 296.398C553.455 296.398 559.979 294.534 566.503 290.806C573.182 287.078 579.395 282.185 585.143 276.127C590.89 269.914 595.705 263.079 599.589 255.623L603.55 258.885C599.356 268.205 593.997 276.36 587.473 283.35C580.949 290.185 573.726 295.544 565.804 299.427C558.037 303.31 550.037 305.252 541.805 305.252ZM531.553 264.011C535.591 263.234 540.174 261.681 545.3 259.351C550.426 256.866 555.319 253.837 559.979 250.264C564.639 246.536 568.444 242.497 571.396 238.148C574.502 233.799 576.056 229.372 576.056 224.867C576.056 223.158 575.745 221.916 575.124 221.139C574.502 220.362 573.415 219.974 571.862 219.974C568.134 219.974 564.25 221.372 560.212 224.168C556.328 226.809 552.445 230.304 548.562 234.653C544.834 238.847 541.494 243.585 538.543 248.866C535.591 253.992 533.261 259.04 531.553 264.011ZM620.533 306.883C612.922 306.883 606.786 305.252 602.126 301.99C597.621 298.883 594.437 294.922 592.573 290.107C590.554 285.292 589.544 280.399 589.544 275.428C589.544 270.923 590.165 267.428 591.408 264.943C592.651 262.458 594.204 260.594 596.068 259.351C597.932 258.108 599.641 257.176 601.194 256.555C602.903 255.934 604.068 255.312 604.689 254.691C608.883 250.186 612.999 245.216 617.038 239.779C621.077 234.342 624.572 228.44 627.523 222.071V219.508C627.523 213.45 628.533 209.178 630.552 206.693C632.571 204.208 634.901 202.965 637.542 202.965C639.251 202.965 640.493 203.431 641.27 204.363C642.047 205.14 642.435 206.072 642.435 207.159C642.435 207.936 642.202 209.023 641.736 210.421C641.425 211.819 641.27 213.683 641.27 216.013C641.27 220.828 642.357 226.265 644.532 232.323C646.707 238.226 648.881 244.517 651.056 251.196C653.231 257.875 654.318 264.71 654.318 271.7C654.318 273.719 654.24 275.583 654.085 277.292C653.93 278.845 653.619 280.399 653.153 281.952C658.279 280.865 663.172 278.302 667.832 274.263C672.492 270.069 676.997 263.856 681.346 255.623L683.909 257.72C680.958 266.574 676.608 273.564 670.861 278.69C665.269 283.661 658.823 286.69 651.522 287.777C649.037 294.301 644.998 299.116 639.406 302.223C633.814 305.33 627.523 306.883 620.533 306.883ZM619.601 297.33C622.242 297.33 624.96 296.553 627.756 295C630.552 293.602 632.804 291.117 634.513 287.544C627.989 286.146 622.164 283.661 617.038 280.088C612.067 276.36 608.184 272.554 605.388 268.671C602.903 269.137 601.66 271.467 601.66 275.661C601.66 280.942 603.136 285.913 606.087 290.573C609.194 295.078 613.698 297.33 619.601 297.33ZM636.144 281.486C636.455 280.243 636.61 278.845 636.61 277.292C636.765 275.739 636.843 274.341 636.843 273.098C636.688 265.953 635.756 258.963 634.047 252.128C632.338 245.138 630.707 238.148 629.154 231.158C626.047 236.439 622.552 241.876 618.669 247.468C614.941 252.905 611.446 257.332 608.184 260.749C610.514 265.254 614.087 269.448 618.902 273.331C623.873 277.214 629.62 279.933 636.144 281.486ZM693.144 301.99C687.862 301.99 683.513 299.582 680.096 294.767C676.834 289.952 675.203 284.36 675.203 277.991C675.203 273.642 675.902 268.516 677.3 262.613C678.853 256.71 680.717 250.963 682.892 245.371C685.066 239.624 687.319 234.886 689.649 231.158C692.134 227.43 694.309 225.566 696.173 225.566C697.26 225.566 698.813 226.11 700.833 227.197C703.007 228.284 704.871 229.605 706.425 231.158C704.716 233.643 702.619 237.527 700.134 242.808C697.804 248.089 695.707 253.759 693.843 259.817C691.979 265.72 691.047 271.156 691.047 276.127C691.047 276.904 691.124 278.535 691.28 281.02C691.59 283.35 692.212 285.525 693.144 287.544C694.231 289.563 696.017 290.573 698.503 290.573C701.143 290.573 704.017 289.175 707.124 286.379C710.23 283.428 713.337 279.622 716.444 274.962C719.706 270.302 722.812 265.254 725.764 259.817C728.715 254.38 731.433 249.177 733.919 244.206C736.404 239.235 738.423 235.041 739.977 231.624C741.219 231.779 742.85 232.168 744.87 232.789C747.044 233.255 748.908 233.954 750.462 234.886C752.17 235.818 753.025 237.138 753.025 238.847C753.025 239.313 752.248 241.255 750.695 244.672C749.297 248.089 747.588 252.206 745.569 257.021C743.549 261.836 741.763 266.729 740.21 271.7C738.812 276.671 738.113 281.02 738.113 284.748C738.113 287.078 738.579 289.097 739.511 290.806C740.443 292.515 742.229 293.369 744.87 293.369C748.132 293.369 752.015 291.893 756.52 288.942C761.18 285.991 765.917 281.719 770.733 276.127C775.548 270.38 779.82 263.623 783.548 255.856L786.81 258.419C783.392 266.807 778.965 274.341 773.529 281.02C768.247 287.544 762.5 292.67 756.287 296.398C750.229 300.126 744.326 301.99 738.579 301.99C734.229 301.99 730.89 300.98 728.56 298.961C726.23 297.097 724.599 294.612 723.667 291.505C722.89 288.398 722.502 285.214 722.502 281.952C722.502 280.865 722.502 279.7 722.502 278.457C722.657 277.214 722.812 276.049 722.968 274.962C720.327 279.467 717.376 283.816 714.114 288.01C711.007 292.049 707.667 295.388 704.095 298.029C700.677 300.67 697.027 301.99 693.144 301.99ZM898.517 302.223C892.614 302.223 888.265 300.437 885.469 296.864C882.673 293.447 881.275 289.33 881.275 284.515C881.275 280.787 881.818 277.137 882.906 273.564C883.993 269.836 885.08 266.186 886.168 262.613C887.41 259.04 888.032 255.778 888.032 252.827C888.032 250.031 887.41 248.089 886.168 247.002C885.08 245.915 883.76 245.371 882.207 245.371C878.479 245.371 874.285 248.245 869.625 253.992C864.965 259.584 859.062 267.661 851.917 278.224C849.431 281.952 847.179 285.835 845.16 289.874C843.14 293.913 841.276 297.408 839.568 300.359C838.325 300.359 836.616 300.126 834.442 299.66C832.267 299.194 830.325 298.573 828.617 297.796C827.063 297.019 826.287 296.01 826.287 294.767C826.287 293.369 827.063 290.651 828.617 286.612C830.17 282.573 831.956 277.836 833.976 272.399C835.995 266.962 837.704 261.603 839.102 256.322C840.655 250.885 841.432 246.303 841.432 242.575C841.432 240.245 841.043 238.459 840.267 237.216C839.49 235.818 838.17 235.119 836.306 235.119C833.044 235.119 829.083 237.138 824.423 241.177C819.763 245.06 814.87 250.186 809.744 256.555C804.618 262.924 799.802 270.069 795.298 277.991C790.948 285.758 787.376 293.524 784.58 301.291C782.871 301.291 780.852 300.98 778.522 300.359C776.192 299.738 774.172 298.961 772.464 298.029C770.755 297.097 769.901 296.243 769.901 295.466C769.901 295 770.522 292.592 771.765 288.243C773.007 283.894 774.561 278.535 776.425 272.166C778.133 265.797 779.764 259.273 781.318 252.594C783.026 245.915 784.347 240.012 785.279 234.886C785.9 233.488 787.531 232.168 790.172 230.925C792.812 229.682 795.22 229.061 797.395 229.061C799.569 229.061 801.278 229.682 802.521 230.925C803.919 232.168 804.618 233.876 804.618 236.051C804.618 237.76 804.229 240.478 803.453 244.206C802.676 247.779 801.666 251.817 800.424 256.322C803.686 251.662 807.181 247.08 810.909 242.575C814.637 237.915 818.52 233.721 822.559 229.993C826.753 226.265 830.869 223.314 834.908 221.139C839.102 218.809 843.218 217.644 847.257 217.644C852.693 217.644 856.344 219.586 858.208 223.469C860.227 227.352 861.237 231.702 861.237 236.517C861.237 239.158 860.926 241.876 860.305 244.672C859.839 247.468 859.217 250.109 858.441 252.594C857.819 255.079 857.043 257.565 856.111 260.05C859.062 255.235 862.402 250.652 866.13 246.303C869.858 241.954 873.819 238.536 878.013 236.051C882.207 233.41 886.711 232.09 891.527 232.09C897.274 232.09 901.235 233.799 903.41 237.216C905.584 240.633 906.672 244.439 906.672 248.633C906.672 252.672 905.973 257.021 904.575 261.681C903.332 266.186 902.012 270.535 900.614 274.729C899.216 278.768 898.517 282.263 898.517 285.214C898.517 286.923 898.905 288.476 899.682 289.874C900.614 291.272 902.322 291.971 904.808 291.971C909.002 291.971 913.04 290.029 916.924 286.146C920.807 282.263 924.38 277.525 927.642 271.933C930.904 266.186 933.7 260.749 936.03 255.623L939.525 259.817C937.039 266.341 933.855 272.865 929.972 279.389C926.088 285.913 921.506 291.35 916.225 295.699C910.943 300.048 905.041 302.223 898.517 302.223ZM943.083 305.951C938.113 305.951 933.841 304.242 930.268 300.825C926.54 297.563 924.676 292.592 924.676 285.913C924.676 280.321 925.919 274.341 928.404 267.972C930.89 261.603 934.307 255.312 938.656 249.099C943.006 242.886 947.976 237.216 953.568 232.09C959.16 226.964 965.063 222.848 971.276 219.741C977.645 216.634 983.936 215.081 990.149 215.081C996.673 215.081 1002.11 216.79 1006.46 220.207C1010.96 223.469 1013.22 227.818 1013.22 233.255C1013.22 237.449 1011.9 240.4 1009.26 242.109C1006.61 243.818 1003.35 244.361 999.469 243.74C999.78 242.497 1000.01 241.177 1000.17 239.779C1000.48 238.226 1000.63 236.75 1000.63 235.352C1000.63 232.09 999.935 229.216 998.537 226.731C997.139 224.246 994.421 223.003 990.382 223.003C986.033 223.003 981.606 224.479 977.101 227.43C972.597 230.381 968.247 234.265 964.053 239.08C959.859 243.895 956.131 249.177 952.869 254.924C949.607 260.671 947.044 266.341 945.18 271.933C943.316 277.525 942.384 282.496 942.384 286.845C942.384 292.126 944.326 294.767 948.209 294.767C951.782 294.767 955.665 293.058 959.859 289.641C964.209 286.224 968.558 281.874 972.907 276.593C977.412 271.312 981.684 265.953 985.722 260.516C989.761 254.924 993.256 250.031 996.207 245.837C996.829 245.06 997.372 244.672 997.838 244.672C998.615 244.827 999.858 245.216 1001.57 245.837C1003.28 246.303 1004.83 247.002 1006.23 247.934C1007.62 248.866 1008.32 250.109 1008.32 251.662C1008.32 253.215 1007.62 255.235 1006.23 257.72C1004.83 260.05 1003.28 262.691 1001.57 265.642C999.858 268.593 998.304 271.545 996.906 274.496C995.508 277.447 994.809 280.321 994.809 283.117C994.809 285.136 995.353 287.156 996.44 289.175C997.683 291.039 999.625 291.971 1002.27 291.971C1006.15 291.971 1011.43 289.175 1018.11 283.583C1024.94 277.836 1031.86 268.516 1038.85 255.623L1042.57 259.351C1039 267.739 1034.57 275.117 1029.29 281.486C1024.17 287.855 1018.73 292.825 1012.98 296.398C1007.24 300.126 1001.49 301.99 995.741 301.99C989.528 301.99 984.946 300.048 981.994 296.165C979.043 292.437 977.412 288.321 977.101 283.816C977.101 283.35 977.101 282.884 977.101 282.418C977.257 281.797 977.334 281.253 977.334 280.787C970.966 288.709 965.141 294.845 959.859 299.194C954.578 303.699 948.986 305.951 943.083 305.951ZM1102.5 315.271C1098.3 312.941 1095.58 310.533 1094.34 308.048C1093.25 305.563 1092.71 303.388 1092.71 301.524C1092.71 297.33 1094.26 291.66 1097.37 284.515C1100.48 277.214 1104.59 268.982 1109.72 259.817C1115 250.497 1120.9 240.789 1127.43 230.692C1122.3 230.381 1117.56 230.148 1113.21 229.993C1109.02 229.838 1104.2 229.76 1098.77 229.76H1093.41C1095.43 224.479 1098.69 220.828 1103.19 218.809C1107.85 216.634 1113.29 215.547 1119.5 215.547C1122.15 215.547 1124.86 215.702 1127.66 216.013C1130.61 216.324 1133.64 216.634 1136.75 216.945C1144.51 205.606 1152.28 194.732 1160.05 184.325C1167.81 173.918 1175.11 164.598 1181.95 156.365C1188.94 148.132 1195 141.531 1200.12 136.56C1206.65 130.191 1211.54 127.007 1214.8 127.007C1216.82 127.007 1219.07 127.784 1221.56 129.337C1224.04 130.89 1226.68 132.91 1229.48 135.395C1227.93 136.638 1225.91 139.9 1223.42 145.181C1221.09 150.307 1218.53 156.831 1215.73 164.753C1213.09 172.675 1210.37 181.374 1207.58 190.849C1204.94 200.324 1202.53 209.955 1200.36 219.741C1198.18 229.372 1196.39 238.614 1195 247.468C1193.75 256.322 1193.13 264.166 1193.13 271.001C1193.13 277.059 1193.75 281.641 1195 284.748C1196.24 287.855 1198.34 289.408 1201.29 289.408C1205.02 289.408 1209.52 286.69 1214.8 281.253C1220.08 275.661 1225.91 266.807 1232.28 254.691L1235.77 258.419C1230.96 271.156 1224.74 281.564 1217.13 289.641C1209.68 297.718 1201.75 301.757 1193.37 301.757C1186.38 301.757 1181.33 298.728 1178.22 292.67C1175.27 286.457 1173.79 277.991 1173.79 267.273C1173.79 263.234 1174.03 258.73 1174.49 253.759C1175.11 248.788 1175.97 243.041 1177.06 236.517C1170.22 235.43 1164.09 234.575 1158.65 233.954C1153.21 233.333 1148.09 232.711 1143.27 232.09C1135.97 245.293 1128.82 259.04 1121.83 273.331C1114.84 287.466 1108.4 301.446 1102.5 315.271ZM1179.15 226.265C1181.33 216.634 1183.81 207.004 1186.61 197.373C1189.56 187.587 1192.59 178.267 1195.7 169.413C1198.96 160.404 1202.06 152.404 1205.02 145.414C1200.36 148.831 1195 154.19 1188.94 161.491C1183.04 168.636 1176.82 177.18 1170.3 187.121C1163.77 197.062 1157.1 207.858 1150.26 219.508C1155.23 220.595 1160.12 221.76 1164.94 223.003C1169.75 224.09 1174.49 225.178 1179.15 226.265ZM1244.48 301.757C1237.95 301.757 1233.06 299.738 1229.8 295.699C1226.54 291.816 1224.9 287 1224.9 281.253C1224.9 277.68 1225.53 273.176 1226.77 267.739C1228.01 262.302 1229.72 256.633 1231.89 250.73C1234.22 244.672 1236.86 239.002 1239.82 233.721C1242.77 228.44 1245.87 224.168 1249.14 220.906C1252.55 217.489 1255.89 215.78 1259.16 215.78C1260.86 215.78 1262.34 216.324 1263.58 217.411C1264.98 218.498 1265.68 220.052 1265.68 222.071C1265.68 224.09 1264.44 227.119 1261.95 231.158C1259.62 235.197 1256.83 239.934 1253.56 245.371C1250.3 250.652 1247.43 256.167 1244.94 261.914C1242.61 267.661 1241.45 273.176 1241.45 278.457C1241.45 283.583 1242.38 287 1244.24 288.709C1246.11 290.418 1248.83 291.272 1252.4 291.272C1257.68 291.272 1263.35 288.631 1269.41 283.35C1275.62 278.069 1282.07 268.826 1288.75 255.623L1291.78 258.885C1286.65 272.554 1279.81 283.117 1271.27 290.573C1262.88 298.029 1253.95 301.757 1244.48 301.757ZM1272.2 195.975C1269.41 195.975 1266.84 195.276 1264.51 193.878C1262.34 192.48 1261.25 190.383 1261.25 187.587C1261.25 183.859 1263.19 180.752 1267.08 178.267C1271.12 175.626 1275.23 174.306 1279.43 174.306C1282.07 174.306 1284.24 174.927 1285.95 176.17C1287.66 177.413 1288.51 179.51 1288.51 182.461C1288.51 185.723 1286.8 188.83 1283.39 191.781C1279.97 194.577 1276.24 195.975 1272.2 195.975Z" fill="black"/>
<defs>
<linearGradient id="paint0_linear_2_14" x1="76.5" y1="104.5" x2="291" y2="337.5" gradientUnits="userSpaceOnUse">
<stop offset="0.61058" stop-color="#444444"/>
<stop offset="1" stop-color="#9B9885"/>
</linearGradient>
</defs>
</svg>
